<svg width="50" height="50" viewBox="0 0 50 50" fill="none" xmlns="http://www.w3.org/2000/svg">
<mask id="mask0_6_148" style="mask-type:alpha" maskUnits="userSpaceOnUse" x="0" y="0" width="50" height="50">
<rect width="50" height="50" fill="#D9D9D9"/>
</mask>
<g mask="url(#mask0_6_148)">
<path d="M22.9146 45.8328V37.187L16.1437 43.8536L13.2271 40.937L22.9146 31.2495V27.0828H18.7479L9.06038 36.7703L6.14372 33.8536L12.8104 27.0828H4.16455V22.9161H12.8104L6.14372 16.1453L9.06038 13.2286L18.7479 22.9161H22.9146V18.7495L13.2271 9.06197L16.1437 6.1453L22.9146 12.812V4.16614H27.0812V12.812L33.852 6.1453L36.7687 9.06197L27.0812 18.7495V22.9161H31.2479L40.9354 13.2286L43.8521 16.1453L37.1854 22.9161H45.8312V27.0828H37.1854L43.8521 33.8536L40.9354 36.7703L31.2479 27.0828H27.0812V31.2495L36.7687 40.937L33.852 43.8536L27.0812 37.187V45.8328H22.9146Z" fill="#484265"/>
</g>
</svg>
