<svg width="92" height="92" viewBox="0 0 92 92" fill="none" xmlns="http://www.w3.org/2000/svg">
<mask id="mask0_6_85" style="mask-type:alpha" maskUnits="userSpaceOnUse" x="0" y="0" width="92" height="92">
<rect width="92" height="92" fill="#D9D9D9"/>
</mask>
<g mask="url(#mask0_6_85)">
<path d="M42.1667 84.3333V68.425L29.7084 80.6916L24.3417 75.325L42.1667 57.5V49.8333H34.5001L16.6751 67.6583L11.3084 62.2916L23.5751 49.8333H7.66675V42.1666H23.5751L11.3084 29.7083L16.6751 24.3416L34.5001 42.1666H42.1667V34.5L24.3417 16.675L29.7084 11.3083L42.1667 23.575V7.66663H49.8334V23.575L62.2918 11.3083L67.6584 16.675L49.8334 34.5V42.1666H57.5001L75.3251 24.3416L80.6918 29.7083L68.4251 42.1666H84.3334V49.8333H68.4251L80.6918 62.2916L75.3251 67.6583L57.5001 49.8333H49.8334V57.5L67.6584 75.325L62.2918 80.6916L49.8334 68.425V84.3333H42.1667Z" fill="#484265"/>
</g>
</svg>
