<svg width="50" height="50" viewBox="0 0 50 50" fill="none" xmlns="http://www.w3.org/2000/svg">
<mask id="mask0_6_151" style="mask-type:alpha" maskUnits="userSpaceOnUse" x="0" y="0" width="50" height="50">
<rect width="50" height="50" fill="#D9D9D9"/>
</mask>
<g mask="url(#mask0_6_151)">
<path d="M23.9594 41.6667C22.2233 41.6667 20.7476 41.059 19.5323 39.8438C18.317 38.6285 17.7094 37.1528 17.7094 35.4167H21.8761C21.8761 36.007 22.0757 36.5017 22.475 36.9011C22.8743 37.3004 23.3691 37.5 23.9594 37.5C24.5497 37.5 25.0445 37.3004 25.4438 36.9011C25.8431 36.5017 26.0427 36.007 26.0427 35.4167C26.0427 34.8264 25.8431 34.3316 25.4438 33.9323C25.0445 33.533 24.5497 33.3333 23.9594 33.3333H4.16772V29.1667H23.9594C25.6955 29.1667 27.1712 29.7743 28.3865 30.9896C29.6017 32.2049 30.2094 33.6806 30.2094 35.4167C30.2094 37.1528 29.6017 38.6285 28.3865 39.8438C27.1712 41.059 25.6955 41.6667 23.9594 41.6667ZM4.16772 20.8333V16.6667H32.2927C33.1955 16.6667 33.942 16.3715 34.5323 15.7813C35.1226 15.191 35.4177 14.4444 35.4177 13.5417C35.4177 12.6389 35.1226 11.8924 34.5323 11.3021C33.942 10.7118 33.1955 10.4167 32.2927 10.4167C31.3899 10.4167 30.6434 10.7118 30.0531 11.3021C29.4629 11.8924 29.1677 12.6389 29.1677 13.5417H25.0011C25.0011 11.4931 25.7042 9.76563 27.1104 8.35938C28.5167 6.95313 30.2441 6.25 32.2927 6.25C34.3413 6.25 36.0688 6.95313 37.475 8.35938C38.8813 9.76563 39.5844 11.4931 39.5844 13.5417C39.5844 15.5903 38.8813 17.3177 37.475 18.724C36.0688 20.1302 34.3413 20.8333 32.2927 20.8333H4.16772ZM38.5427 37.5V33.3333C39.4455 33.3333 40.192 33.0382 40.7823 32.4479C41.3726 31.8576 41.6677 31.1111 41.6677 30.2083C41.6677 29.3056 41.3726 28.559 40.7823 27.9688C40.192 27.3785 39.4455 27.0833 38.5427 27.0833H4.16772V22.9167H38.5427C40.5913 22.9167 42.3188 23.6198 43.725 25.026C45.1313 26.4323 45.8344 28.1597 45.8344 30.2083C45.8344 32.257 45.1313 33.9844 43.725 35.3906C42.3188 36.7969 40.5913 37.5 38.5427 37.5Z" fill="#484265"/>
</g>
</svg>
