<svg width="92" height="92" viewBox="0 0 92 92" fill="none" xmlns="http://www.w3.org/2000/svg">
<mask id="mask0_6_91" style="mask-type:alpha" maskUnits="userSpaceOnUse" x="0" y="0" width="92" height="92">
<rect width="92" height="92" fill="#D9D9D9"/>
</mask>
<g mask="url(#mask0_6_91)">
<path d="M44.0833 76.6667C40.8888 76.6667 38.1736 75.5486 35.9375 73.3125C33.7013 71.0764 32.5833 68.3611 32.5833 65.1667H40.25C40.25 66.2528 40.6173 67.1632 41.352 67.8979C42.0868 68.6326 42.9972 69 44.0833 69C45.1694 69 46.0798 68.6326 46.8145 67.8979C47.5493 67.1632 47.9166 66.2528 47.9166 65.1667C47.9166 64.0806 47.5493 63.1701 46.8145 62.4354C46.0798 61.7007 45.1694 61.3333 44.0833 61.3333H7.66663V53.6667H44.0833C47.2777 53.6667 49.993 54.7847 52.2291 57.0208C54.4652 59.2569 55.5833 61.9722 55.5833 65.1667C55.5833 68.3611 54.4652 71.0764 52.2291 73.3125C49.993 75.5486 47.2777 76.6667 44.0833 76.6667ZM7.66663 38.3333V30.6667H59.4166C61.0777 30.6667 62.4513 30.1236 63.5375 29.0375C64.6236 27.9514 65.1666 26.5778 65.1666 24.9167C65.1666 23.2556 64.6236 21.8819 63.5375 20.7958C62.4513 19.7097 61.0777 19.1667 59.4166 19.1667C57.7555 19.1667 56.3819 19.7097 55.2958 20.7958C54.2097 21.8819 53.6666 23.2556 53.6666 24.9167H46C46 21.1472 47.2937 17.9688 49.8812 15.3813C52.4687 12.7938 55.6472 11.5 59.4166 11.5C63.1861 11.5 66.3645 12.7938 68.952 15.3813C71.5395 17.9688 72.8333 21.1472 72.8333 24.9167C72.8333 28.6861 71.5395 31.8646 68.952 34.4521C66.3645 37.0396 63.1861 38.3333 59.4166 38.3333H7.66663ZM70.9166 69V61.3333C72.5777 61.3333 73.9513 60.7903 75.0375 59.7042C76.1236 58.6181 76.6666 57.2444 76.6666 55.5833C76.6666 53.9222 76.1236 52.5486 75.0375 51.4625C73.9513 50.3764 72.5777 49.8333 70.9166 49.8333H7.66663V42.1667H70.9166C74.6861 42.1667 77.8645 43.4604 80.452 46.0479C83.0395 48.6354 84.3333 51.8139 84.3333 55.5833C84.3333 59.3528 83.0395 62.5312 80.452 65.1187C77.8645 67.7062 74.6861 69 70.9166 69Z" fill="#484265"/>
</g>
</svg>
