<svg width="50" height="50" viewBox="0 0 50 50" fill="none" xmlns="http://www.w3.org/2000/svg">
<mask id="mask0_6_166" style="mask-type:alpha" maskUnits="userSpaceOnUse" x="0" y="0" width="50" height="50">
<rect width="50" height="50" fill="#D9D9D9"/>
</mask>
<g mask="url(#mask0_6_166)">
<path d="M25.2094 45.8328C22.2927 45.8328 19.5583 45.2772 17.0063 44.1661C14.4542 43.055 12.232 41.5533 10.3396 39.6609C8.44724 37.7686 6.9455 35.5463 5.83439 32.9943C4.72328 30.4422 4.16772 27.7078 4.16772 24.7911C4.16772 19.7217 5.78231 15.2512 9.01147 11.3797C12.2406 7.50815 16.3552 5.10364 21.3552 4.16614C20.7302 7.60364 20.9212 10.963 21.9281 14.2443C22.9351 17.5255 24.6712 20.3988 27.1365 22.8641C29.6017 25.3293 32.475 27.0654 35.7563 28.0724C39.0375 29.0793 42.3969 29.2703 45.8344 28.6453C44.9316 33.6453 42.5358 37.7599 38.6469 40.9891C34.758 44.2182 30.2788 45.8328 25.2094 45.8328ZM25.2094 41.6661C28.2649 41.6661 31.0948 40.9022 33.699 39.3745C36.3031 37.8467 38.3517 35.746 39.8448 33.0724C36.8587 32.7946 34.0288 32.0394 31.3552 30.8068C28.6816 29.5741 26.2858 27.8988 24.1677 25.7807C22.0497 23.6627 20.3656 21.2668 19.1156 18.5932C17.8656 15.9196 17.1191 13.0897 16.8761 10.1036C14.2024 11.5967 12.1104 13.654 10.6 16.2755C9.0896 18.897 8.33439 21.7356 8.33439 24.7911C8.33439 29.4786 9.97502 33.463 13.2563 36.7443C16.5375 40.0255 20.5219 41.6661 25.2094 41.6661Z" fill="#484265"/>
</g>
</svg>
