<svg width="92" height="92" viewBox="0 0 92 92" fill="none" xmlns="http://www.w3.org/2000/svg">
<mask id="mask0_6_139" style="mask-type:alpha" maskUnits="userSpaceOnUse" x="0" y="0" width="92" height="92">
<rect width="92" height="92" fill="#D9D9D9"/>
</mask>
<g mask="url(#mask0_6_139)">
<path d="M46.3833 84.3334C41.0166 84.3334 35.9854 83.3111 31.2895 81.2667C26.5937 79.2222 22.5048 76.459 19.0229 72.9771C15.5409 69.4952 12.7777 65.4063 10.7333 60.7104C8.68885 56.0146 7.66663 50.9834 7.66663 45.6167C7.66663 36.2889 10.6375 28.0632 16.5791 20.9396C22.5208 13.816 30.0916 9.39169 39.2916 7.66669C38.1416 13.9917 38.493 20.1729 40.3458 26.2104C42.1986 32.2479 45.393 37.5347 49.9291 42.0709C54.4652 46.607 59.752 49.8014 65.7895 51.6542C71.827 53.507 78.0083 53.8584 84.3333 52.7084C82.6722 61.9084 78.2639 69.4792 71.1083 75.4209C63.9527 81.3625 55.7111 84.3334 46.3833 84.3334ZM46.3833 76.6667C52.0055 76.6667 57.2125 75.2611 62.0041 72.45C66.7958 69.6389 70.5652 65.7736 73.3125 60.8542C67.818 60.3431 62.6111 58.9535 57.6916 56.6854C52.7722 54.4174 48.3638 51.3347 44.4666 47.4375C40.5694 43.5403 37.4708 39.132 35.1708 34.2125C32.8708 29.2931 31.4972 24.0861 31.05 18.5917C26.1305 21.3389 22.2812 25.1243 19.502 29.9479C16.7229 34.7715 15.3333 39.9945 15.3333 45.6167C15.3333 54.2417 18.352 61.5729 24.3895 67.6104C30.427 73.6479 37.7583 76.6667 46.3833 76.6667Z" fill="#484265"/>
</g>
</svg>
