<svg width="50" height="50" viewBox="0 0 50 50" fill="none" xmlns="http://www.w3.org/2000/svg">
<mask id="mask0_26_38" style="mask-type:alpha" maskUnits="userSpaceOnUse" x="0" y="0" width="50" height="50">
<rect width="50" height="50" fill="#D9D9D9"/>
</mask>
<g mask="url(#mask0_26_38)">
<path d="M22.9156 10.4172V2.08386H27.0823V10.4172H22.9156ZM36.7698 16.1464L33.9052 13.2818L39.7385 7.2922L42.6552 10.2609L36.7698 16.1464ZM39.5823 27.0839V22.9172H47.9156V27.0839H39.5823ZM22.9156 47.9172V39.5839H27.0823V47.9172H22.9156ZM13.2281 16.0422L7.29061 10.2609L10.2594 7.34428L16.1448 13.2297L13.2281 16.0422ZM39.6865 42.7089L33.9052 36.7193L36.7177 33.9068L42.6552 39.636L39.6865 42.7089ZM2.08228 27.0839V22.9172H10.4156V27.0839H2.08228ZM10.2594 42.7089L7.34269 39.7401L13.176 33.9068L14.6864 35.313L16.1969 36.7714L10.2594 42.7089ZM24.9989 37.5005C21.5267 37.5005 18.5753 36.2853 16.1448 33.8547C13.7142 31.4241 12.4989 28.4728 12.4989 25.0005C12.4989 21.5283 13.7142 18.5769 16.1448 16.1464C18.5753 13.7158 21.5267 12.5005 24.9989 12.5005C28.4712 12.5005 31.4226 13.7158 33.8531 16.1464C36.2837 18.5769 37.499 21.5283 37.499 25.0005C37.499 28.4728 36.2837 31.4241 33.8531 33.8547C31.4226 36.2853 28.4712 37.5005 24.9989 37.5005ZM24.9989 33.3339C27.2906 33.3339 29.2524 32.5179 30.8844 30.886C32.5163 29.254 33.3323 27.2922 33.3323 25.0005C33.3323 22.7089 32.5163 20.7471 30.8844 19.1151C29.2524 17.4832 27.2906 16.6672 24.9989 16.6672C22.7073 16.6672 20.7455 17.4832 19.1135 19.1151C17.4816 20.7471 16.6656 22.7089 16.6656 25.0005C16.6656 27.2922 17.4816 29.254 19.1135 30.886C20.7455 32.5179 22.7073 33.3339 24.9989 33.3339Z" fill="#484265"/>
</g>
</svg>
