<svg width="92" height="92" viewBox="0 0 92 92" fill="none" xmlns="http://www.w3.org/2000/svg">
<mask id="mask0_6_142" style="mask-type:alpha" maskUnits="userSpaceOnUse" x="0" y="0" width="92" height="92">
<rect width="92" height="92" fill="#D9D9D9"/>
</mask>
<g mask="url(#mask0_6_142)">
<path d="M42.1667 19.1666V3.83331H49.8334V19.1666H42.1667ZM67.6584 29.7083L62.3875 24.4375L73.1209 13.4166L78.4875 18.8791L67.6584 29.7083ZM72.8334 49.8333V42.1666H88.1667V49.8333H72.8334ZM42.1667 88.1666V72.8333H49.8334V88.1666H42.1667ZM24.3417 29.5166L13.4167 18.8791L18.8792 13.5125L29.7084 24.3416L24.3417 29.5166ZM73.025 78.5833L62.3875 67.5625L67.5625 62.3875L78.4875 72.9291L73.025 78.5833ZM3.83337 49.8333V42.1666H19.1667V49.8333H3.83337ZM18.8792 78.5833L13.5125 73.1208L24.2459 62.3875L27.025 64.975L29.8042 67.6583L18.8792 78.5833ZM46 69C39.6112 69 34.1806 66.7639 29.7084 62.2916C25.2362 57.8194 23 52.3889 23 46C23 39.6111 25.2362 34.1805 29.7084 29.7083C34.1806 25.2361 39.6112 23 46 23C52.3889 23 57.8195 25.2361 62.2917 29.7083C66.7639 34.1805 69 39.6111 69 46C69 52.3889 66.7639 57.8194 62.2917 62.2916C57.8195 66.7639 52.3889 69 46 69ZM46 61.3333C50.2167 61.3333 53.8264 59.8319 56.8292 56.8291C59.832 53.8264 61.3334 50.2166 61.3334 46C61.3334 41.7833 59.832 38.1736 56.8292 35.1708C53.8264 32.168 50.2167 30.6666 46 30.6666C41.7834 30.6666 38.1737 32.168 35.1709 35.1708C32.1681 38.1736 30.6667 41.7833 30.6667 46C30.6667 50.2166 32.1681 53.8264 35.1709 56.8291C38.1737 59.8319 41.7834 61.3333 46 61.3333Z" fill="#484265"/>
</g>
</svg>
