<svg width="50" height="50" viewBox="0 0 50 50" fill="none" xmlns="http://www.w3.org/2000/svg">
<mask id="mask0_6_157" style="mask-type:alpha" maskUnits="userSpaceOnUse" x="0" y="0" width="50" height="50">
<rect width="50" height="50" fill="#D9D9D9"/>
</mask>
<g mask="url(#mask0_6_157)">
<path d="M12.5011 39.5828C11.9108 39.5828 11.416 39.3831 11.0167 38.9838C10.6174 38.5845 10.4177 38.0897 10.4177 37.4995C10.4177 36.9092 10.6174 36.4144 11.0167 36.0151C11.416 35.6158 11.9108 35.4161 12.5011 35.4161C13.0913 35.4161 13.5861 35.6158 13.9854 36.0151C14.3847 36.4144 14.5844 36.9092 14.5844 37.4995C14.5844 38.0897 14.3847 38.5845 13.9854 38.9838C13.5861 39.3831 13.0913 39.5828 12.5011 39.5828ZM37.5011 39.5828C36.9108 39.5828 36.416 39.3831 36.0167 38.9838C35.6174 38.5845 35.4177 38.0897 35.4177 37.4995C35.4177 36.9092 35.6174 36.4144 36.0167 36.0151C36.416 35.6158 36.9108 35.4161 37.5011 35.4161C38.0913 35.4161 38.5861 35.6158 38.9854 36.0151C39.3847 36.4144 39.5844 36.9092 39.5844 37.4995C39.5844 38.0897 39.3847 38.5845 38.9854 38.9838C38.5861 39.3831 38.0913 39.5828 37.5011 39.5828ZM18.7511 47.9161C18.1608 47.9161 17.666 47.7165 17.2667 47.3172C16.8674 46.9179 16.6677 46.4231 16.6677 45.8328C16.6677 45.2425 16.8674 44.7477 17.2667 44.3484C17.666 43.9491 18.1608 43.7495 18.7511 43.7495C19.3413 43.7495 19.8361 43.9491 20.2354 44.3484C20.6347 44.7477 20.8344 45.2425 20.8344 45.8328C20.8344 46.4231 20.6347 46.9179 20.2354 47.3172C19.8361 47.7165 19.3413 47.9161 18.7511 47.9161ZM25.0011 39.5828C24.4108 39.5828 23.916 39.3831 23.5167 38.9838C23.1174 38.5845 22.9177 38.0897 22.9177 37.4995C22.9177 36.9092 23.1174 36.4144 23.5167 36.0151C23.916 35.6158 24.4108 35.4161 25.0011 35.4161C25.5913 35.4161 26.0861 35.6158 26.4854 36.0151C26.8847 36.4144 27.0844 36.9092 27.0844 37.4995C27.0844 38.0897 26.8847 38.5845 26.4854 38.9838C26.0861 39.3831 25.5913 39.5828 25.0011 39.5828ZM31.2511 47.9161C30.6608 47.9161 30.166 47.7165 29.7667 47.3172C29.3674 46.9179 29.1677 46.4231 29.1677 45.8328C29.1677 45.2425 29.3674 44.7477 29.7667 44.3484C30.166 43.9491 30.6608 43.7495 31.2511 43.7495C31.8413 43.7495 32.3361 43.9491 32.7354 44.3484C33.1347 44.7477 33.3344 45.2425 33.3344 45.8328C33.3344 46.4231 33.1347 46.9179 32.7354 47.3172C32.3361 47.7165 31.8413 47.9161 31.2511 47.9161ZM15.6261 33.3328C12.4663 33.3328 9.76668 32.213 7.5271 29.9734C5.28752 27.7338 4.16772 25.0342 4.16772 21.8745C4.16772 18.9925 5.12259 16.4752 7.03231 14.3224C8.94203 12.1696 11.3031 10.9022 14.1156 10.5203C15.2268 8.54114 16.7458 6.98732 18.6729 5.85885C20.6 4.73037 22.7094 4.16614 25.0011 4.16614C28.1261 4.16614 30.8431 5.1644 33.1521 7.16093C35.4611 9.15746 36.8587 11.6488 37.3448 14.6349C39.7406 14.8432 41.7545 15.8328 43.3865 17.6036C45.0184 19.3745 45.8344 21.4925 45.8344 23.9578C45.8344 26.562 44.9229 28.7755 43.1 30.5984C41.2771 32.4213 39.0636 33.3328 36.4594 33.3328H15.6261ZM15.6261 29.1661H36.4594C37.9177 29.1661 39.1504 28.6627 40.1573 27.6557C41.1642 26.6488 41.6677 25.4161 41.6677 23.9578C41.6677 22.4995 41.1642 21.2668 40.1573 20.2599C39.1504 19.2529 37.9177 18.7495 36.4594 18.7495H33.3344V16.6661C33.3344 14.3745 32.5184 12.4127 30.8865 10.7807C29.2545 9.14878 27.2927 8.3328 25.0011 8.3328C23.3344 8.3328 21.8153 8.78419 20.4438 9.68697C19.0722 10.5897 18.0393 11.805 17.3448 13.3328L16.824 14.5828H15.5219C13.5427 14.6522 11.85 15.3901 10.4438 16.7963C9.03752 18.2026 8.33439 19.8953 8.33439 21.8745C8.33439 23.8884 9.0462 25.6071 10.4698 27.0307C11.8934 28.4543 13.6122 29.1661 15.6261 29.1661Z" fill="#484265"/>
</g>
</svg>
