<svg width="50" height="50" viewBox="0 0 50 50" fill="none" xmlns="http://www.w3.org/2000/svg">
<mask id="mask0_6_154" style="mask-type:alpha" maskUnits="userSpaceOnUse" x="0" y="0" width="50" height="50">
<rect width="50" height="50" fill="#D9D9D9"/>
</mask>
<g mask="url(#mask0_6_154)">
<path d="M13.5406 41.6672C10.3809 41.6672 7.68124 40.5734 5.44165 38.3859C3.20207 36.1984 2.08228 33.5248 2.08228 30.3651C2.08228 27.6568 2.89825 25.2436 4.53019 23.1255C6.16214 21.0075 8.29755 19.6533 10.9364 19.063C11.8045 15.8686 13.5406 13.2818 16.1448 11.3026C18.7489 9.32345 21.7003 8.33386 24.9989 8.33386C29.0615 8.33386 32.5076 9.74879 35.3375 12.5787C38.1674 15.4085 39.5823 18.8547 39.5823 22.9172C41.9781 23.195 43.966 24.228 45.5458 26.0161C47.1257 27.8043 47.9156 29.8964 47.9156 32.2922C47.9156 34.8964 47.0042 37.1099 45.1812 38.9328C43.3583 40.7557 41.1448 41.6672 38.5406 41.6672H13.5406ZM13.5406 37.5005H38.5406C39.999 37.5005 41.2316 36.997 42.2385 35.9901C43.2455 34.9832 43.749 33.7505 43.749 32.2922C43.749 30.8339 43.2455 29.6012 42.2385 28.5943C41.2316 27.5873 39.999 27.0839 38.5406 27.0839H35.4156V22.9172C35.4156 20.0352 34.4 17.5787 32.3687 15.5474C30.3375 13.5162 27.8809 12.5005 24.9989 12.5005C22.117 12.5005 19.6604 13.5162 17.6292 15.5474C15.5979 17.5787 14.5823 20.0352 14.5823 22.9172H13.5406C11.5267 22.9172 9.80797 23.629 8.38436 25.0526C6.96075 26.4762 6.24894 28.195 6.24894 30.2089C6.24894 32.2227 6.96075 33.9415 8.38436 35.3651C9.80797 36.7887 11.5267 37.5005 13.5406 37.5005Z" fill="#484265"/>
</g>
</svg>
