<svg width="92" height="92" viewBox="0 0 92 92" fill="none" xmlns="http://www.w3.org/2000/svg">
<mask id="mask0_6_121" style="mask-type:alpha" maskUnits="userSpaceOnUse" x="0" y="0" width="92" height="92">
<rect width="92" height="92" fill="#D9D9D9"/>
</mask>
<g mask="url(#mask0_6_121)">
<path d="M23 72.8334C21.9138 72.8334 21.0034 72.466 20.2687 71.7313C19.534 70.9965 19.1666 70.0861 19.1666 69C19.1666 67.9139 19.534 67.0035 20.2687 66.2688C21.0034 65.534 21.9138 65.1667 23 65.1667C24.0861 65.1667 24.9965 65.534 25.7312 66.2688C26.4659 67.0035 26.8333 67.9139 26.8333 69C26.8333 70.0861 26.4659 70.9965 25.7312 71.7313C24.9965 72.466 24.0861 72.8334 23 72.8334ZM69 72.8334C67.9138 72.8334 67.0034 72.466 66.2687 71.7313C65.534 70.9965 65.1666 70.0861 65.1666 69C65.1666 67.9139 65.534 67.0035 66.2687 66.2688C67.0034 65.534 67.9138 65.1667 69 65.1667C70.0861 65.1667 70.9965 65.534 71.7312 66.2688C72.4659 67.0035 72.8333 67.9139 72.8333 69C72.8333 70.0861 72.4659 70.9965 71.7312 71.7313C70.9965 72.466 70.0861 72.8334 69 72.8334ZM34.5 88.1667C33.4138 88.1667 32.5034 87.7993 31.7687 87.0646C31.034 86.3299 30.6666 85.4195 30.6666 84.3334C30.6666 83.2472 31.034 82.3368 31.7687 81.6021C32.5034 80.8674 33.4138 80.5 34.5 80.5C35.5861 80.5 36.4965 80.8674 37.2312 81.6021C37.9659 82.3368 38.3333 83.2472 38.3333 84.3334C38.3333 85.4195 37.9659 86.3299 37.2312 87.0646C36.4965 87.7993 35.5861 88.1667 34.5 88.1667ZM46 72.8334C44.9138 72.8334 44.0034 72.466 43.2687 71.7313C42.534 70.9965 42.1666 70.0861 42.1666 69C42.1666 67.9139 42.534 67.0035 43.2687 66.2688C44.0034 65.534 44.9138 65.1667 46 65.1667C47.0861 65.1667 47.9965 65.534 48.7312 66.2688C49.4659 67.0035 49.8333 67.9139 49.8333 69C49.8333 70.0861 49.4659 70.9965 48.7312 71.7313C47.9965 72.466 47.0861 72.8334 46 72.8334ZM57.5 88.1667C56.4138 88.1667 55.5034 87.7993 54.7687 87.0646C54.034 86.3299 53.6666 85.4195 53.6666 84.3334C53.6666 83.2472 54.034 82.3368 54.7687 81.6021C55.5034 80.8674 56.4138 80.5 57.5 80.5C58.5861 80.5 59.4965 80.8674 60.2312 81.6021C60.9659 82.3368 61.3333 83.2472 61.3333 84.3334C61.3333 85.4195 60.9659 86.3299 60.2312 87.0646C59.4965 87.7993 58.5861 88.1667 57.5 88.1667ZM28.75 61.3334C22.9361 61.3334 17.9687 59.2729 13.8479 55.1521C9.72704 51.0313 7.66663 46.0639 7.66663 40.25C7.66663 34.9472 9.42357 30.3153 12.9375 26.3542C16.4513 22.3931 20.7958 20.0611 25.9708 19.3584C28.0152 15.7167 30.8104 12.8577 34.3562 10.7813C37.902 8.70488 41.7833 7.66669 46 7.66669C51.75 7.66669 56.7493 9.50349 60.9979 13.1771C65.2465 16.8507 67.818 21.4347 68.7125 26.9292C73.1208 27.3125 76.8263 29.1334 79.8291 32.3917C82.8319 35.65 84.3333 39.5472 84.3333 44.0834C84.3333 48.875 82.6562 52.9479 79.302 56.3021C75.9479 59.6563 71.875 61.3334 67.0833 61.3334H28.75ZM28.75 53.6667H67.0833C69.7666 53.6667 72.0347 52.7403 73.8875 50.8875C75.7402 49.0347 76.6666 46.7667 76.6666 44.0834C76.6666 41.4 75.7402 39.132 73.8875 37.2792C72.0347 35.4264 69.7666 34.5 67.0833 34.5H61.3333V30.6667C61.3333 26.45 59.8319 22.8403 56.8291 19.8375C53.8263 16.8347 50.2166 15.3334 46 15.3334C42.9333 15.3334 40.1382 16.1639 37.6145 17.825C35.0909 19.4861 33.1902 21.7222 31.9125 24.5334L30.9541 26.8334H28.5583C24.9166 26.9611 21.802 28.3188 19.2145 30.9063C16.627 33.4938 15.3333 36.6084 15.3333 40.25C15.3333 43.9556 16.643 47.1181 19.2625 49.7375C21.8819 52.357 25.0444 53.6667 28.75 53.6667Z" fill="#484265"/>
</g>
</svg>
