<svg width="92" height="92" viewBox="0 0 92 92" fill="none" xmlns="http://www.w3.org/2000/svg">
<mask id="mask0_6_115" style="mask-type:alpha" maskUnits="userSpaceOnUse" x="0" y="0" width="92" height="92">
<rect width="92" height="92" fill="#D9D9D9"/>
</mask>
<g mask="url(#mask0_6_115)">
<path d="M24.9167 76.6666C19.1028 76.6666 14.1355 74.6541 10.0146 70.6291C5.89379 66.6041 3.83337 61.6847 3.83337 55.8708C3.83337 50.8875 5.33476 46.4472 8.33754 42.55C11.3403 38.6528 15.2695 36.1611 20.125 35.075C21.7223 29.1972 24.9167 24.4375 29.7084 20.7958C34.5 17.1541 39.9306 15.3333 46 15.3333C53.475 15.3333 59.816 17.9368 65.023 23.1437C70.2299 28.3507 72.8334 34.6916 72.8334 42.1666C77.2417 42.6778 80.8994 44.5785 83.8063 47.8687C86.7132 51.159 88.1667 55.0083 88.1667 59.4166C88.1667 64.2083 86.4896 68.2812 83.1355 71.6354C79.7813 74.9896 75.7084 76.6666 70.9167 76.6666H24.9167ZM24.9167 69H70.9167C73.6 69 75.8681 68.0736 77.7209 66.2208C79.5737 64.368 80.5 62.1 80.5 59.4166C80.5 56.7333 79.5737 54.4653 77.7209 52.6125C75.8681 50.7597 73.6 49.8333 70.9167 49.8333H65.1667V42.1666C65.1667 36.8639 63.298 32.3437 59.5605 28.6062C55.823 24.8687 51.3028 23 46 23C40.6973 23 36.1771 24.8687 32.4396 28.6062C28.7021 32.3437 26.8334 36.8639 26.8334 42.1666H24.9167C21.2112 42.1666 18.0487 43.4764 15.4292 46.0958C12.8098 48.7153 11.5 51.8778 11.5 55.5833C11.5 59.2889 12.8098 62.4514 15.4292 65.0708C18.0487 67.6903 21.2112 69 24.9167 69Z" fill="#484265"/>
</g>
</svg>
