<svg width="51" height="51" viewBox="0 0 51 51" fill="none" xmlns="http://www.w3.org/2000/svg">
<mask id="mask0_70_94" style="mask-type:alpha" maskUnits="userSpaceOnUse" x="0" y="0" width="51" height="51">
<rect x="0.504883" y="0.786865" width="50" height="50" fill="#D9D9D9"/>
</mask>
<g mask="url(#mask0_70_94)">
<path d="M39.5674 18.8077C38.6299 19.7452 37.5535 20.457 36.3382 20.9432C35.1229 21.4293 33.9077 21.6723 32.6924 21.6723C31.4771 21.6723 30.2792 21.4379 29.0986 20.9692C27.9181 20.5004 26.859 19.78 25.9215 18.8077L22.0153 14.9015C21.4945 14.3807 20.9042 13.99 20.2445 13.7296C19.5847 13.4692 18.9077 13.339 18.2132 13.339C17.5188 13.339 16.8417 13.4692 16.182 13.7296C15.5222 13.99 14.932 14.3807 14.4111 14.9015L10.5049 18.8077L7.53613 15.839L11.4424 11.9327C12.3799 10.9952 13.4389 10.2921 14.6195 9.82336C15.8 9.35461 16.9979 9.12024 18.2132 9.12024C19.4285 9.12024 20.6177 9.35461 21.7809 9.82336C22.9441 10.2921 23.9945 10.9952 24.932 11.9327L28.8382 15.839C29.3938 16.3945 30.0014 16.8025 30.6611 17.0629C31.3209 17.3234 31.9979 17.4536 32.6924 17.4536C33.3868 17.4536 34.0726 17.3234 34.7497 17.0629C35.4268 16.8025 36.0431 16.3945 36.5986 15.839L40.5049 11.9327L43.4736 14.9015L39.5674 18.8077ZM39.5674 29.2244C38.6299 30.1619 37.5622 30.865 36.3643 31.3338C35.1663 31.8025 33.9597 32.0369 32.7445 32.0369C31.5292 32.0369 30.3226 31.8025 29.1247 31.3338C27.9268 30.865 26.859 30.1619 25.9215 29.2244L22.0153 25.3182C21.4945 24.7973 20.9042 24.4067 20.2445 24.1463C19.5847 23.8859 18.9077 23.7557 18.2132 23.7557C17.5188 23.7557 16.8417 23.8859 16.182 24.1463C15.5222 24.4067 14.932 24.7973 14.4111 25.3182L10.5049 29.2244L7.53613 26.3077L11.4424 22.3494C12.3799 21.4119 13.4389 20.7088 14.6195 20.24C15.8 19.7713 16.9979 19.5369 18.2132 19.5369C19.4285 19.5369 20.6177 19.7713 21.7809 20.24C22.9441 20.7088 23.9945 21.4119 24.932 22.3494L28.8382 26.2557C29.3938 26.8112 30.0014 27.2192 30.6611 27.4796C31.3209 27.74 31.9979 27.8702 32.6924 27.8702C33.3868 27.8702 34.0726 27.74 34.7497 27.4796C35.4268 27.2192 36.0431 26.8112 36.5986 26.2557L40.5049 22.3494L43.4736 25.3182L39.5674 29.2244ZM39.5153 39.6411C38.5778 40.5786 37.5188 41.2817 36.3382 41.7504C35.1577 42.2192 33.9597 42.4536 32.7445 42.4536C31.5292 42.4536 30.3226 42.2192 29.1247 41.7504C27.9268 41.2817 26.859 40.5786 25.9215 39.6411L21.9632 35.7348C21.4424 35.214 20.8521 34.8234 20.1924 34.5629C19.5327 34.3025 18.8556 34.1723 18.1611 34.1723C17.4667 34.1723 16.7896 34.3025 16.1299 34.5629C15.4702 34.8234 14.8799 35.214 14.359 35.7348L10.4528 39.6411L7.53613 36.7244L11.4424 32.7661C12.3799 31.8286 13.4389 31.1254 14.6195 30.6567C15.8 30.1879 16.9979 29.9536 18.2132 29.9536C19.4285 29.9536 20.6177 30.1879 21.7809 30.6567C22.9441 31.1254 23.9945 31.8286 24.932 32.7661L28.8382 36.6723C29.3938 37.2279 30.0101 37.6359 30.6872 37.8963C31.3643 38.1567 32.05 38.2869 32.7445 38.2869C33.4389 38.2869 34.116 38.1567 34.7757 37.8963C35.4354 37.6359 36.0431 37.2279 36.5986 36.6723L40.5049 32.7661L43.4215 35.7348L39.5153 39.6411Z" fill="#484265"/>
</g>
</svg>
