<svg width="92" height="92" viewBox="0 0 92 92" fill="none" xmlns="http://www.w3.org/2000/svg">
<mask id="mask0_70_95" style="mask-type:alpha" maskUnits="userSpaceOnUse" x="0" y="0" width="92" height="92">
<rect width="92" height="92" fill="#D9D9D9"/>
</mask>
<g mask="url(#mask0_70_95)">
<path d="M71.875 33.1583C70.15 34.8833 68.1694 36.193 65.9333 37.0875C63.6972 37.9819 61.4611 38.4291 59.225 38.4291C56.9889 38.4291 54.7847 37.9979 52.6125 37.1354C50.4403 36.2729 48.4917 34.9472 46.7667 33.1583L39.5792 25.9708C38.6208 25.0125 37.5347 24.2937 36.3208 23.8146C35.1069 23.3354 33.8611 23.0958 32.5833 23.0958C31.3056 23.0958 30.0597 23.3354 28.8458 23.8146C27.6319 24.2937 26.5458 25.0125 25.5875 25.9708L18.4 33.1583L12.9375 27.6958L20.125 20.5083C21.85 18.7833 23.7986 17.4896 25.9708 16.6271C28.1431 15.7646 30.3472 15.3333 32.5833 15.3333C34.8194 15.3333 37.0076 15.7646 39.1479 16.6271C41.2882 17.4896 43.2208 18.7833 44.9458 20.5083L52.1333 27.6958C53.1556 28.718 54.2736 29.4687 55.4875 29.9479C56.7014 30.4271 57.9472 30.6666 59.225 30.6666C60.5028 30.6666 61.7646 30.4271 63.0104 29.9479C64.2562 29.4687 65.3903 28.718 66.4125 27.6958L73.6 20.5083L79.0625 25.9708L71.875 33.1583ZM71.875 52.325C70.15 54.05 68.1854 55.3437 65.9813 56.2062C63.7771 57.0687 61.5569 57.5 59.3208 57.5C57.0847 57.5 54.8646 57.0687 52.6604 56.2062C50.4562 55.3437 48.4917 54.05 46.7667 52.325L39.5792 45.1375C38.6208 44.1791 37.5347 43.4604 36.3208 42.9812C35.1069 42.5021 33.8611 42.2625 32.5833 42.2625C31.3056 42.2625 30.0597 42.5021 28.8458 42.9812C27.6319 43.4604 26.5458 44.1791 25.5875 45.1375L18.4 52.325L12.9375 46.9583L20.125 39.675C21.85 37.95 23.7986 36.6562 25.9708 35.7937C28.1431 34.9312 30.3472 34.5 32.5833 34.5C34.8194 34.5 37.0076 34.9312 39.1479 35.7937C41.2882 36.6562 43.2208 37.95 44.9458 39.675L52.1333 46.8625C53.1556 47.8847 54.2736 48.6354 55.4875 49.1146C56.7014 49.5937 57.9472 49.8333 59.225 49.8333C60.5028 49.8333 61.7646 49.5937 63.0104 49.1146C64.2562 48.6354 65.3903 47.8847 66.4125 46.8625L73.6 39.675L79.0625 45.1375L71.875 52.325ZM71.7792 71.4916C70.0542 73.2166 68.1056 74.5104 65.9333 75.3729C63.7611 76.2354 61.5569 76.6666 59.3208 76.6666C57.0847 76.6666 54.8646 76.2354 52.6604 75.3729C50.4562 74.5104 48.4917 73.2166 46.7667 71.4916L39.4833 64.3041C38.525 63.3458 37.4389 62.6271 36.225 62.1479C35.0111 61.6687 33.7653 61.4291 32.4875 61.4291C31.2097 61.4291 29.9639 61.6687 28.75 62.1479C27.5361 62.6271 26.45 63.3458 25.4917 64.3041L18.3042 71.4916L12.9375 66.125L20.125 58.8416C21.85 57.1166 23.7986 55.8229 25.9708 54.9604C28.1431 54.0979 30.3472 53.6666 32.5833 53.6666C34.8194 53.6666 37.0076 54.0979 39.1479 54.9604C41.2882 55.8229 43.2208 57.1166 44.9458 58.8416L52.1333 66.0291C53.1556 67.0514 54.2896 67.8021 55.5354 68.2812C56.7812 68.7604 58.0431 69 59.3208 69C60.5986 69 61.8444 68.7604 63.0583 68.2812C64.2722 67.8021 65.3903 67.0514 66.4125 66.0291L73.6 58.8416L78.9667 64.3041L71.7792 71.4916Z" fill="#484265"/>
</g>
</svg>
