<svg width="151" height="124" viewBox="0 0 151 124" fill="none" xmlns="http://www.w3.org/2000/svg">
<path d="M110.162 41.9744C118.157 41.9744 125.153 46.51 128.612 53.1213C137.069 52.7369 144.525 48.355 149.061 41.8206C147.524 42.1281 145.909 42.2819 144.295 42.2819C129.765 42.2819 118.004 30.52 118.004 15.9906C118.004 10.4556 119.772 5.22813 122.693 1C110.393 3.22938 101.168 13.9919 101.168 26.9069C101.168 32.6725 103.013 38.0537 106.242 42.4356C107.472 42.1281 108.779 41.9744 110.162 41.9744Z" fill="#484265" stroke="#484265" stroke-miterlimit="10"/>
<path d="M9.99437 53.89C9.76375 48.0475 6.91937 44.8187 1 44.2037C6.535 45.1262 9.30249 41.2825 10.6862 35.2094C10.3787 39.2069 13.6075 44.05 19.6806 44.8956C10.3787 44.5881 9.99437 53.89 9.99437 53.89Z" fill="#484265" stroke="#484265" stroke-miterlimit="10"/>
<path d="M33.518 29.3669C33.2874 23.5244 30.4431 20.2956 24.5237 19.6806C30.0587 20.6031 32.8262 16.7594 34.2099 10.6863C33.9024 14.6838 37.1312 19.5269 43.2043 20.3725C33.9024 19.9881 33.518 29.3669 33.518 29.3669Z" fill="#484265" stroke="#484265" stroke-miterlimit="10"/>
<path d="M132.917 65.8056C131.534 65.8056 130.227 65.9594 128.92 66.2669C128.92 66.1131 128.92 65.8825 128.92 65.7287C128.92 54.1975 119.618 44.8956 108.087 44.8956C105.781 44.8956 103.474 45.28 101.399 45.9719C98.2468 37.5156 90.098 31.4425 80.5655 31.4425C69.5724 31.4425 60.5012 39.4375 58.6562 49.8925C57.0418 49.4313 55.2736 49.2006 53.5824 49.2006C44.6649 49.2006 37.1312 55.4275 35.2093 63.8069C33.5949 63.3456 31.8268 63.1919 30.1355 63.1919C18.8349 63.1919 9.68677 72.34 9.68677 83.6406C9.68677 92.5581 15.4524 100.169 23.3705 102.936C23.9855 107.933 28.2137 111.777 33.3643 111.777C35.5937 111.777 37.6693 111.008 39.2836 109.855C41.2055 116.313 47.2018 121.079 54.3511 121.079C58.6561 121.079 62.4999 119.387 65.3443 116.543C69.803 121.156 76.1068 124 83.0255 124C91.8661 124 99.5536 119.387 103.936 112.392C106.626 114.698 110.086 116.082 113.929 116.082C122.462 116.082 129.304 109.163 129.304 100.707C129.304 100.323 129.304 99.9381 129.227 99.6306C130.457 99.9381 131.687 100.015 132.994 100.015C142.373 100.015 149.984 92.4044 149.984 83.0256C149.907 73.4163 142.296 65.7288 132.917 65.8056Z" fill="#484265"/>
</svg>
