<svg width="50" height="50" viewBox="0 0 50 50" fill="none" xmlns="http://www.w3.org/2000/svg">
<mask id="mask0_6_160" style="mask-type:alpha" maskUnits="userSpaceOnUse" x="0" y="0" width="50" height="50">
<rect width="50" height="50" fill="#D9D9D9"/>
</mask>
<g mask="url(#mask0_6_160)">
<path d="M29.0604 45.6245C28.5395 45.9023 28.01 45.9457 27.4718 45.7547C26.9336 45.5637 26.5257 45.2078 26.2479 44.687L23.1229 38.437C22.8451 37.9161 22.8017 37.3866 22.9927 36.8484C23.1836 36.3102 23.5395 35.9023 24.0604 35.6245C24.5812 35.3467 25.1107 35.3033 25.6489 35.4943C26.1871 35.6852 26.5951 36.0411 26.8729 36.562L29.9979 42.812C30.2757 43.3328 30.3191 43.8623 30.1281 44.4005C29.9371 44.9387 29.5812 45.3467 29.0604 45.6245ZM41.5604 45.6245C41.0395 45.9023 40.51 45.9457 39.9718 45.7547C39.4336 45.5637 39.0257 45.2078 38.7479 44.687L35.6229 38.437C35.3451 37.9161 35.3017 37.3866 35.4927 36.8484C35.6836 36.3102 36.0395 35.9023 36.5604 35.6245C37.0812 35.3467 37.6107 35.3033 38.1489 35.4943C38.6871 35.6852 39.0951 36.0411 39.3729 36.562L42.4979 42.812C42.7757 43.3328 42.8191 43.8623 42.6281 44.4005C42.4371 44.9387 42.0812 45.3467 41.5604 45.6245ZM16.5604 45.6245C16.0395 45.9023 15.51 45.9457 14.9718 45.7547C14.4336 45.5637 14.0257 45.2078 13.7479 44.687L10.6229 38.437C10.3451 37.9161 10.3017 37.3866 10.4927 36.8484C10.6836 36.3102 11.0395 35.9023 11.5604 35.6245C12.0812 35.3467 12.6107 35.3033 13.1489 35.4943C13.6871 35.6852 14.0951 36.0411 14.3729 36.562L17.4979 42.812C17.7757 43.3328 17.8191 43.8623 17.6281 44.4005C17.4371 44.9387 17.0812 45.3467 16.5604 45.6245ZM15.6229 33.3328C12.4632 33.3328 9.76351 32.213 7.52393 29.9734C5.28434 27.7339 4.16455 25.0342 4.16455 21.8745C4.16455 18.9925 5.11941 16.4752 7.02913 14.3224C8.93886 12.1696 11.3 10.9023 14.1125 10.5203C15.2236 8.54114 16.7427 6.98732 18.6698 5.85885C20.5968 4.73037 22.7062 4.16614 24.9979 4.16614C28.1229 4.16614 30.8399 5.1644 33.1489 7.16093C35.4579 9.15746 36.8555 11.6488 37.3416 14.6349C39.7375 14.8432 41.7514 15.8328 43.3833 17.6036C45.0152 19.3745 45.8312 21.4925 45.8312 23.9578C45.8312 26.562 44.9198 28.7755 43.0968 30.5984C41.2739 32.4214 39.0604 33.3328 36.4562 33.3328H15.6229ZM15.6229 29.1661H36.4562C37.9145 29.1661 39.1472 28.6627 40.1541 27.6557C41.1611 26.6488 41.6645 25.4161 41.6645 23.9578C41.6645 22.4995 41.1611 21.2668 40.1541 20.2599C39.1472 19.2529 37.9145 18.7495 36.4562 18.7495H33.3312V16.6661C33.3312 14.3745 32.5152 12.4127 30.8833 10.7807C29.2514 9.14878 27.2895 8.33281 24.9979 8.33281C23.3312 8.33281 21.8121 8.78419 20.4406 9.68697C19.0691 10.5898 18.0361 11.805 17.3416 13.3328L16.8208 14.5828H15.5187C13.5395 14.6523 11.8468 15.3901 10.4406 16.7963C9.03434 18.2026 8.33122 19.8953 8.33122 21.8745C8.33122 23.8884 9.04302 25.6071 10.4666 27.0307C11.8902 28.4543 13.609 29.1661 15.6229 29.1661Z" fill="#484265"/>
</g>
</svg>
