<svg width="92" height="92" viewBox="0 0 92 92" fill="none" xmlns="http://www.w3.org/2000/svg">
<mask id="mask0_6_127" style="mask-type:alpha" maskUnits="userSpaceOnUse" x="0" y="0" width="92" height="92">
<rect width="92" height="92" fill="#D9D9D9"/>
</mask>
<g mask="url(#mask0_6_127)">
<path d="M53.4751 83.95C52.5167 84.4611 51.5424 84.541 50.5522 84.1896C49.5619 83.8382 48.8112 83.1834 48.3001 82.225L42.5501 70.725C42.039 69.7667 41.9591 68.7924 42.3105 67.8021C42.6619 66.8118 43.3167 66.0611 44.2751 65.55C45.2334 65.0389 46.2077 64.9591 47.198 65.3104C48.1883 65.6618 48.939 66.3167 49.4501 67.275L55.2001 78.775C55.7112 79.7334 55.7911 80.7077 55.4397 81.6979C55.0883 82.6882 54.4334 83.4389 53.4751 83.95ZM76.4751 83.95C75.5167 84.4611 74.5424 84.541 73.5522 84.1896C72.5619 83.8382 71.8112 83.1834 71.3001 82.225L65.5501 70.725C65.039 69.7667 64.9591 68.7924 65.3105 67.8021C65.6619 66.8118 66.3167 66.0611 67.2751 65.55C68.2334 65.0389 69.2077 64.9591 70.198 65.3104C71.1883 65.6618 71.939 66.3167 72.4501 67.275L78.2001 78.775C78.7112 79.7334 78.7911 80.7077 78.4397 81.6979C78.0883 82.6882 77.4334 83.4389 76.4751 83.95ZM30.4751 83.95C29.5167 84.4611 28.5424 84.541 27.5522 84.1896C26.5619 83.8382 25.8112 83.1834 25.3001 82.225L19.5501 70.725C19.039 69.7667 18.9591 68.7924 19.3105 67.8021C19.6619 66.8118 20.3167 66.0611 21.2751 65.55C22.2334 65.0389 23.2077 64.9591 24.198 65.3104C25.1883 65.6618 25.939 66.3167 26.4501 67.275L32.2001 78.775C32.7112 79.7334 32.7911 80.7077 32.4397 81.6979C32.0883 82.6882 31.4334 83.4389 30.4751 83.95ZM28.7501 61.3334C22.9362 61.3334 17.9688 59.2729 13.848 55.1521C9.72716 51.0313 7.66675 46.0639 7.66675 40.25C7.66675 34.9472 9.42369 30.3153 12.9376 26.3542C16.4515 22.3931 20.7959 20.0611 25.9709 19.3584C28.0154 15.7167 30.8105 12.8577 34.3563 10.7813C37.9022 8.70488 41.7834 7.66669 46.0001 7.66669C51.7501 7.66669 56.7494 9.50349 60.998 13.1771C65.2466 16.8507 67.8181 21.4347 68.7126 26.9292C73.1209 27.3125 76.8265 29.1334 79.8292 32.3917C82.832 35.65 84.3334 39.5472 84.3334 44.0834C84.3334 48.875 82.6563 52.9479 79.3022 56.3021C75.948 59.6563 71.8751 61.3334 67.0834 61.3334H28.7501ZM28.7501 53.6667H67.0834C69.7667 53.6667 72.0348 52.7403 73.8876 50.8875C75.7404 49.0347 76.6667 46.7667 76.6667 44.0834C76.6667 41.4 75.7404 39.132 73.8876 37.2792C72.0348 35.4264 69.7667 34.5 67.0834 34.5H61.3334V30.6667C61.3334 26.45 59.832 22.8403 56.8292 19.8375C53.8265 16.8347 50.2167 15.3334 46.0001 15.3334C42.9334 15.3334 40.1383 16.1639 37.6147 17.825C35.0911 19.4861 33.1904 21.7222 31.9126 24.5334L30.9542 26.8334H28.5584C24.9167 26.9611 21.8022 28.3188 19.2147 30.9063C16.6272 33.4938 15.3334 36.6084 15.3334 40.25C15.3334 43.9556 16.6431 47.1181 19.2626 49.7375C21.882 52.357 25.0445 53.6667 28.7501 53.6667Z" fill="#484265"/>
</g>
</svg>
