<svg width="50" height="50" viewBox="0 0 50 50" fill="none" xmlns="http://www.w3.org/2000/svg">
<mask id="mask0_6_163" style="mask-type:alpha" maskUnits="userSpaceOnUse" x="0" y="0" width="50" height="50">
<rect width="50" height="50" fill="#D9D9D9"/>
</mask>
<g mask="url(#mask0_6_163)">
<path d="M24.0636 49.9995L28.9594 44.4266L24.7927 42.3432L30.8344 35.4161H36.3552L31.4594 40.9891L35.6261 43.0724L29.5844 49.9995H24.0636ZM11.5636 49.9995L16.4594 44.4266L12.2927 42.3432L18.3344 35.4161H23.8552L18.9594 40.9891L23.1261 43.0724L17.0844 49.9995H11.5636ZM15.6261 33.3328C12.4663 33.3328 9.76668 32.213 7.5271 29.9734C5.28752 27.7339 4.16772 25.0342 4.16772 21.8745C4.16772 18.9925 5.12259 16.4752 7.03231 14.3224C8.94203 12.1696 11.3031 10.9023 14.1156 10.5203C15.2268 8.54114 16.7458 6.98732 18.6729 5.85885C20.6 4.73037 22.7094 4.16614 25.0011 4.16614C28.1261 4.16614 30.8431 5.1644 33.1521 7.16093C35.4611 9.15746 36.8587 11.6488 37.3448 14.6349C39.7406 14.8432 41.7545 15.8328 43.3865 17.6036C45.0184 19.3745 45.8344 21.4925 45.8344 23.9578C45.8344 26.562 44.9229 28.7755 43.1 30.5984C41.2771 32.4214 39.0636 33.3328 36.4594 33.3328H15.6261ZM15.6261 29.1661H36.4594C37.9177 29.1661 39.1504 28.6627 40.1573 27.6557C41.1642 26.6488 41.6677 25.4161 41.6677 23.9578C41.6677 22.4995 41.1642 21.2668 40.1573 20.2599C39.1504 19.2529 37.9177 18.7495 36.4594 18.7495H33.3344V16.6661C33.3344 14.3745 32.5184 12.4127 30.8865 10.7807C29.2545 9.14878 27.2927 8.33281 25.0011 8.33281C23.3344 8.33281 21.8153 8.78419 20.4438 9.68697C19.0722 10.5898 18.0393 11.805 17.3448 13.3328L16.824 14.5828H15.5219C13.5427 14.6523 11.85 15.3901 10.4438 16.7963C9.03752 18.2026 8.33439 19.8953 8.33439 21.8745C8.33439 23.8884 9.0462 25.6071 10.4698 27.0307C11.8934 28.4543 13.6122 29.1661 15.6261 29.1661Z" fill="#484265"/>
</g>
</svg>
