<svg width="92" height="92" viewBox="0 0 92 92" fill="none" xmlns="http://www.w3.org/2000/svg">
<mask id="mask0_6_133" style="mask-type:alpha" maskUnits="userSpaceOnUse" x="0" y="0" width="92" height="92">
<rect width="92" height="92" fill="#D9D9D9"/>
</mask>
<g mask="url(#mask0_6_133)">
<path d="M44.275 92L53.2833 81.7459L45.6166 77.9125L56.7333 65.1667H66.8916L57.8833 75.4209L65.55 79.2542L54.4333 92H44.275ZM21.275 92L30.2833 81.7459L22.6166 77.9125L33.7333 65.1667H43.8916L34.8833 75.4209L42.55 79.2542L31.4333 92H21.275ZM28.75 61.3334C22.9361 61.3334 17.9687 59.2729 13.8479 55.1521C9.72704 51.0313 7.66663 46.0639 7.66663 40.25C7.66663 34.9472 9.42357 30.3153 12.9375 26.3542C16.4513 22.3931 20.7958 20.0611 25.9708 19.3584C28.0152 15.7167 30.8104 12.8577 34.3562 10.7813C37.902 8.70488 41.7833 7.66669 46 7.66669C51.75 7.66669 56.7493 9.50349 60.9979 13.1771C65.2465 16.8507 67.818 21.4347 68.7125 26.9292C73.1208 27.3125 76.8263 29.1334 79.8291 32.3917C82.8319 35.65 84.3333 39.5472 84.3333 44.0834C84.3333 48.875 82.6562 52.9479 79.302 56.3021C75.9479 59.6563 71.875 61.3334 67.0833 61.3334H28.75ZM28.75 53.6667H67.0833C69.7666 53.6667 72.0347 52.7403 73.8875 50.8875C75.7402 49.0347 76.6666 46.7667 76.6666 44.0834C76.6666 41.4 75.7402 39.132 73.8875 37.2792C72.0347 35.4264 69.7666 34.5 67.0833 34.5H61.3333V30.6667C61.3333 26.45 59.8319 22.8403 56.8291 19.8375C53.8263 16.8347 50.2166 15.3334 46 15.3334C42.9333 15.3334 40.1382 16.1639 37.6145 17.825C35.0909 19.4861 33.1902 21.7222 31.9125 24.5334L30.9541 26.8334H28.5583C24.9166 26.9611 21.802 28.3188 19.2145 30.9063C16.627 33.4938 15.3333 36.6084 15.3333 40.25C15.3333 43.9556 16.643 47.1181 19.2625 49.7375C21.8819 52.357 25.0444 53.6667 28.75 53.6667Z" fill="#484265"/>
</g>
</svg>
